<?xml version="1.0" standalone="no"?><!DOCTYPE svg PUBLIC "-//W3C//DTD SVG 1.1//EN" "http://www.w3.org/Graphics/SVG/1.1/DTD/svg11.dtd"><svg t="1581785975801" class="icon" viewBox="0 0 1024 1024" version="1.1" xmlns="http://www.w3.org/2000/svg" p-id="11862" xmlns:xlink="http://www.w3.org/1999/xlink" width="200" height="200"><defs><style type="text/css"></style></defs><path d="M846.127507 760.942018a26.938861 26.938861 0 0 0-43.991161 31.114385 353.060718 353.060718 0 0 1 64.949595 204.843102 26.938861 26.938861 0 1 0 53.877723 0 406.345786 406.345786 0 0 0-74.836157-235.957487zM753.78109 667.006209a26.911923 26.911923 0 1 0-31.814796 43.452383c9.994318 7.300431 19.611491 15.166579 28.555193 23.275176a26.938861 26.938861 0 0 0 36.259708-39.869515 410.709881 410.709881 0 0 0-33.000105-26.858044zM676.87064 622.476271c-9.644112-4.25634-19.530675-7.704514-29.417236-11.179628 109.3179-51.210776 185.366305-161.983374 185.366305-290.427865C832.819709 143.961275 688.858434 0.026939 511.923992 0.026939 334.98955 0.026939 191.055214 143.961275 191.055214 320.868778c0 128.525308 76.129222 239.324845 185.47406 290.508682C217.455298 667.43723 102.911259 818.86057 102.911259 996.899505a26.938861 26.938861 0 1 0 53.877723 0c0-195.845522 159.316426-355.161949 355.13501-355.161948 49.836894 0 98.030517 10.102073 143.233926 30.03683a26.938861 26.938861 0 1 0 21.712722-49.298116zM244.932936 320.868778c0-147.193939 119.770178-266.964117 266.964117-266.964116 147.247816 0 267.044933 119.770178 267.044933 266.964116 0 147.220878-119.770178 266.991055-267.044933 266.991056-147.193939 0-266.964117-119.770178-266.964117-266.991056z" fill="#707070" p-id="11863"></path></svg>